HIERARCHY
ROOT reference
{
  OFFSET 0 0 0
  CHANNELS 6 Xposition Yposition Zposition Zrotation Xrotation Yrotation
  JOINT Hips
  {
    OFFSET 0 97.8064 0
    CHANNELS 6 Xposition Yposition Zposition Zrotation Xrotation Yrotation
    JOINT ToSpine
    {
      OFFSET -2.69724 7.43032 -0.144315
      CHANNELS 6 Xposition Yposition Zposition Zrotation Xrotation Yrotation
      JOINT Spine
      {
        OFFSET -0.0310711 10.7595 1.96963
        CHANNELS 6 Xposition Yposition Zposition Zrotation Xrotation Yrotation
        JOINT Spine1
        {
          OFFSET 13.1342 3.43533 0.764692
          CHANNELS 6 Xposition Yposition Zposition Zrotation Xrotation Yrotation
          JOINT Neck
          {
            OFFSET 29.8703 7.82586 -0.130764
            CHANNELS 6 Xposition Yposition Zposition Zrotation Xrotation Yrotation
            JOINT Head
            {
              OFFSET 9.52751 0.295786 -0.907742
              CHANNELS 6 Xposition Yposition Zposition Zrotation Xrotation Yrotation
              End Site
              {
                OFFSET 16.4037 0.713936 2.7358
              }
            }
          }
          JOINT LeftShoulder
          {
            OFFSET 27.5574 4.95586 2.47156
            CHANNELS 6 Xposition Yposition Zposition Zrotation Xrotation Yrotation
            JOINT LeftArm
            {
              OFFSET 1.20734 -0.998971 20.1238
              CHANNELS 6 Xposition Yposition Zposition Zrotation Xrotation Yrotation
              JOINT LeftForeArm
              {
                OFFSET 26.8049 -0.0536703 -0.155908
                CHANNELS 6 Xposition Yposition Zposition Zrotation Xrotation Yrotation
                JOINT LeftHand
                {
                  OFFSET 26.6817 0 0.320147
                  CHANNELS 6 Xposition Yposition Zposition Zrotation Xrotation Yrotation
                  End Site
                  {
                    OFFSET 18.6119 0 0.382219
                  }
                }
              }
            }
          }
          JOINT RightShoulder
          {
            OFFSET 27.5927 4.71444 -2.65209
            CHANNELS 6 Xposition Yposition Zposition Zrotation Xrotation Yrotation
            JOINT RightArm
            {
              OFFSET 2.83739 -1.17114 -18.7564
              CHANNELS 6 Xposition Yposition Zposition Zrotation Xrotation Yrotation
              JOINT RightForeArm
              {
                OFFSET 28.839 -0.0548439 1.22491
                CHANNELS 6 Xposition Yposition Zposition Zrotation Xrotation Yrotation
                JOINT RightHand
                {
                  OFFSET 26.5114 0 -0.101894
                  CHANNELS 6 Xposition Yposition Zposition Zrotation Xrotation Yrotation
                  End Site
                  {
                    OFFSET 18.2168 0 0
                  }
                }
              }
            }
          }
        }
      }
    }
    JOINT LeftUpLeg
    {
      OFFSET -4.76168 -1.9167 -10.2353
      CHANNELS 6 Xposition Yposition Zposition Zrotation Xrotation Yrotation
      JOINT LeftLeg
      {
        OFFSET 2.55951 -42.0585 -8.02213
        CHANNELS 6 Xposition Yposition Zposition Zrotation Xrotation Yrotation
        JOINT LeftFoot
        {
          OFFSET 3.16357 -42.5282 -3.95426
          CHANNELS 6 Xposition Yposition Zposition Zrotation Xrotation Yrotation
          JOINT LeftToeBase
          {
            OFFSET 0.346054 -6.02161 12.8035
            CHANNELS 6 Xposition Yposition Zposition Zrotation Xrotation Yrotation
            End Site
            {
              OFFSET 0.134235 -1.35082 5.13018
            }
          }
        }
      }
    }
    JOINT RightUpLeg
    {
      OFFSET -4.94151 -1.41743 10.6446
      CHANNELS 6 Xposition Yposition Zposition Zrotation Xrotation Yrotation
      JOINT RightLeg
      {
        OFFSET -2.56294 -42.0364 -7.94377
        CHANNELS 6 Xposition Yposition Zposition Zrotation Xrotation Yrotation
        JOINT RightFoot
        {
          OFFSET -3.0952 -42.555 -4.02241
          CHANNELS 6 Xposition Yposition Zposition Zrotation Xrotation Yrotation
          JOINT RightToeBase
          {
            OFFSET -0.0828122 -6.13587 12.8035
            CHANNELS 6 Xposition Yposition Zposition Zrotation Xrotation Yrotation
            End Site
            {
              OFFSET -0.131328 -1.35082 5.13018
            }
          }
        }
      }
    }
  }
}
MOTION
Frames:	10
Frame Time:	0.0333333
0 0 0 0 0 -0 -8.4535 89.5615 -0.0315386 60.6499 -60.5395 -29.3478 -2.69724 7.43032 -0.144315 -70.1915 3.97569e-016 88.8779 -0.0310711 10.7595 1.96963 74.4092 71.1375 5.73818 13.1342 3.43533 0.764692 5.0736 17.9186 11.6631 29.8703 7.82586 -0.130764 -127.049 30.5132 174.261 9.52751 0.295786 -0.907742 -174.874 69.8855 -145.966 27.5574 4.95586 2.47156 0.896059 -8.60153 2.34837 1.20734 -0.998971 20.1238 -96.9369 38.7552 -164.219 26.8049 -0.0536703 -0.155908 23.0916 7.70349 -71.9507 26.6817 -4.26326e-014 0.320147 3.18055e-015 3.18055e-015 -6.36111e-015 27.5927 4.71444 -2.65209 -2.00653 8.58535 37.5445 2.83739 -1.17114 -18.7564 -58.5347 -27.3698 110.976 28.839 -0.0548439 1.22491 18.2074 0.404371 90.8311 26.5114 2.84217e-014 -0.101894 -1.10766e-012 -4.76475e-009 -0.0296889 -4.76168 -1.9167 -10.2353 -55.2911 6.29199 102.286 2.55951 -42.0585 -8.02213 -4.88549 52.5908 -10.2577 3.16357 -42.5282 -3.95426 0.57955 -22.8948 -1.91102 0.346054 -6.02161 12.8035 7.28806 -16.8681 24.6352 -4.94151 -1.41743 10.6446 -30.3307 -14.4928 98.6162 -2.56294 -42.0364 -7.94377 -0.0160425 31.2081 15.3628 -3.0952 -42.555 -4.02241 2.07444 13.1602 -1.37957 -0.0828122 -6.13587 12.8035 0.971059 -4.53138 -2.94953 
0 0 0 0 0 -0 -9.82163 90.2768 1.6135 63.623 -54.8661 -24.4058 -2.69724 7.43032 -0.144315 -70.1915 -3.37934e-015 88.8779 -0.0310711 10.7595 1.96963 73.2389 71.6649 7.75604 13.1342 3.43533 0.764692 5.54437 18.7991 11.0999 29.8703 7.82586 -0.130764 -128.016 30.9253 173.182 9.52751 0.295786 -0.907742 -177.145 70.3986 -144.861 27.5574 4.95586 2.47156 1.148 -11.7955 -1.64678 1.20734 -0.998971 20.1238 -82.7048 37.578 -170.787 26.8049 -0.0536703 -0.155908 13.9689 3.58555 -75.3143 26.6817 -4.26326e-014 0.320147 6.36111e-015 -1.59028e-015 -0 27.5927 4.71444 -2.65209 -1.70772 8.43451 34.3748 2.83739 -1.17114 -18.7564 -67.887 -27.1063 111.643 28.839 -0.0548439 1.22491 14.0109 0.659366 92.4553 26.5114 2.84217e-014 -0.101894 -1.10448e-012 -4.76473e-009 -0.0296889 -4.76168 -1.9167 -10.2353 -54.6138 7.94746 98.899 2.55951 -42.0585 -8.02213 -3.54853 49.4761 -5.69625 3.16357 -42.5282 -3.95426 -1.87138 -23.5213 -2.15398 0.346054 -6.02161 12.8035 5.2747 -12.4073 9.55542 -4.94151 -1.41743 10.6446 -33.1329 -16.3738 91.4586 -2.56294 -42.0364 -7.94377 -1.71404 29.2605 23.2759 -3.0952 -42.555 -4.02241 3.87218 16.3826 -2.15604 -0.0828122 -6.13587 12.8035 1.63641 -12.1683 -3.57089 
0 0 0 0 0 -0 -11.1044 91.1288 3.68109 66.086 -49.0338 -20.8586 -2.69724 7.43032 -0.144315 -70.1915 -1.98785e-015 88.8779 -0.0310711 10.7595 1.96963 72.1618 71.9849 9.67782 13.1342 3.43533 0.764692 6.43278 19.8883 8.62257 29.8703 7.82586 -0.130764 -127.494 30.4803 169.948 9.52751 0.295786 -0.907742 -175.339 70.8462 -146.262 27.5574 4.95586 2.47156 1.17239 -15.2507 -5.41622 1.20734 -0.998971 20.1238 -71.4912 34.3287 -172.023 26.8049 -0.0536703 -0.155908 12.7558 2.14816 -79.9946 26.6817 -2.84217e-014 0.320147 -3.18055e-015 -3.97569e-015 -0 27.5927 4.71444 -2.65209 -1.42752 8.32988 31.1645 2.83739 -1.17114 -18.7564 -79.8396 -28.5259 109.313 28.839 -0.0548439 1.22491 11.6153 0.990609 94.5538 26.5114 2.84217e-014 -0.101894 -1.10449e-012 -4.76476e-009 -0.0296889 -4.76168 -1.9167 -10.2353 -54.2955 8.17543 95.1553 2.55951 -42.0585 -8.02213 -3.51217 46.1519 -8.7362 3.16357 -42.5282 -3.95426 -1.58583 -19.6381 -1.75408 0.346054 -6.02161 12.8035 6.01705 -13.9999 11.3711 -4.94151 -1.41743 10.6446 -36.0933 -18.7779 89.0547 -2.56294 -42.0364 -7.94377 -1.39479 28.771 15.4331 -3.0952 -42.555 -4.02241 0.172997 14.0955 -0.964751 -0.0828122 -6.13587 12.8035 1.399 -13.4571 6.48975 
0 0 0 0 0 -0 -12.6943 91.7972 5.77457 66.8771 -43.3666 -18.7853 -2.69724 7.43032 -0.144315 -70.1915 -6.75868e-015 88.8779 -0.0310711 10.7595 1.96963 72.9799 71.8962 9.49873 13.1342 3.43533 0.764692 6.10622 20.4123 6.27308 29.8703 7.82586 -0.130764 -127.285 30.2233 168 9.52751 0.295786 -0.907742 -177.405 70.914 -144.456 27.5574 4.95586 2.47156 1.00016 -16.6556 -9.20258 1.20734 -0.998971 20.1238 -62.7672 30.2989 -168.303 26.8049 -0.0536703 -0.155908 17.0517 1.40095 -84.7916 26.6817 -4.26326e-014 0.320147 -3.18055e-015 7.15625e-015 3.18055e-015 27.5927 4.71444 -2.65209 -1.28644 8.56356 28.9223 2.83739 -1.17114 -18.7564 -91.7761 -28.6797 105.039 28.839 -0.0548439 1.22491 9.45736 1.08324 96.1921 26.5114 1.42109e-014 -0.101894 -1.11402e-012 -4.76473e-009 -0.0296889 -4.76168 -1.9167 -10.2353 -52.7144 9.0914 92.4738 2.55951 -42.0585 -8.02213 -3.41897 43.3159 -10.9557 3.16357 -42.5282 -3.95426 -0.817026 -14.6594 -1.25554 0.346054 -6.02161 12.8035 7.38331 -16.1977 11.1491 -4.94151 -1.41743 10.6446 -38.0564 -20.2556 84.6804 -2.56294 -42.0364 -7.94377 -1.10623 28.5 15.6993 -3.0952 -42.555 -4.02241 1.15743 12.569 -1.08219 -0.0828122 -6.13587 12.8035 1.89942 -15.4789 -0.265559 
0 0 0 0 0 -0 -14.3306 92.1085 8.01482 67.4629 -38.1964 -16.4129 -2.69724 7.43032 -0.144315 -70.1915 -4.01607e-015 88.8779 -0.0310711 10.7595 1.96963 76.5476 71.6363 7.25557 13.1342 3.43533 0.764692 5.32788 20.6034 3.97938 29.8703 7.82586 -0.130764 -126.936 30.4352 167.261 9.52751 0.295786 -0.907742 178.35 70.9449 -140.657 27.5574 4.95586 2.47156 0.645976 -17.6495 -14.2971 1.20734 -0.998971 20.1238 -57.4499 25.5525 -160.247 26.8049 -0.0536703 -0.155908 19.142 0.350702 -88.1987 26.6817 -1.42109e-014 0.320147 -1.19271e-015 -7.95139e-016 6.36111e-015 27.5927 4.71444 -2.65209 -1.33625 8.66947 29.3054 2.83739 -1.17114 -18.7564 -102.616 -23.9857 100.508 28.839 -0.0548439 1.22491 12.4104 1.48668 96.4492 26.5114 2.84217e-014 -0.101894 -1.10766e-012 -4.76473e-009 -0.0296889 -4.76168 -1.9167 -10.2353 -50.4153 11.0191 90.7348 2.55951 -42.0585 -8.02213 -3.30687 41.802 -11.6981 3.16357 -42.5282 -3.95426 -1.85913 -12.4224 -1.04002 0.346054 -6.02161 12.8035 6.7925 -15.0631 8.46823 -4.94151 -1.41743 10.6446 -39.6071 -20.389 82.9909 -2.56294 -42.0364 -7.94377 -0.335908 29.474 8.40876 -3.0952 -42.555 -4.02241 0.293658 7.82034 -0.524431 -0.0828122 -6.13587 12.8035 1.45126 -13.0267 2.61662 
0 0 0 0 0 -0 -15.8925 92.302 10.1723 68.1103 -33.7138 -14.2427 -2.69724 7.43032 -0.144315 -70.1915 1.98785e-016 88.8779 -0.0310711 10.7595 1.96963 79.8886 72.0402 3.63829 13.1342 3.43533 0.764692 4.10136 20.8407 4.21688 29.8703 7.82586 -0.130764 -125.378 30.8028 165.388 9.52751 0.295786 -0.907742 175.518 71.5465 -137.65 27.5574 4.95586 2.47156 0.316354 -17.9032 -18.8424 1.20734 -0.998971 20.1238 -54.524 21.7023 -152.42 26.8049 -0.0536703 -0.155908 18.6897 -0.037112 -89.5285 26.6817 -2.84217e-014 0.320147 -1.98785e-015 5.26779e-015 -3.18055e-015 27.5927 4.71444 -2.65209 -1.41204 8.51082 30.5736 2.83739 -1.17114 -18.7564 -111.256 -16.9206 95.9601 28.839 -0.0548439 1.22491 14.4811 1.7118 96.332 26.5114 2.84217e-014 -0.101894 -1.11084e-012 -4.76473e-009 -0.0296889 -4.76168 -1.9167 -10.2353 -47.843 13.7438 92.0954 2.55951 -42.0585 -8.02213 -3.32205 41.4543 -12.3457 3.16357 -42.5282 -3.95426 -3.0629 -10.6755 -0.828172 0.346054 -6.02161 12.8035 5.49197 -13.0368 10.0935 -4.94151 -1.41743 10.6446 -40.8524 -20.0761 81.6735 -2.56294 -42.0364 -7.94377 0.357577 30.9359 3.0842 -3.0952 -42.555 -4.02241 -2.48502 4.70626 0.223667 -0.0828122 -6.13587 12.8035 1.39628 -13.2891 4.59901 
0 0 0 0 0 -0 -17.2675 92.2625 11.7854 68.8502 -30.0408 -12.2918 -2.69724 7.43032 -0.144315 -70.1915 -1.26725e-015 88.8779 -0.0310711 10.7595 1.96963 85.4508 72.4966 -2.4689 13.1342 3.43533 0.764692 2.81325 20.9052 5.45803 29.8703 7.82586 -0.130764 -124.488 31.63 164.465 9.52751 0.295786 -0.907742 169.76 71.9171 -131.92 27.5574 4.95586 2.47156 0.0385202 -17.7688 -23.066 1.20734 -0.998971 20.1238 -53.533 19.4081 -144.882 26.8049 -0.0536703 -0.155908 20.5257 -0.0688823 -89.4874 26.6817 -2.84217e-014 0.320147 -7.95139e-016 -3.57812e-015 -1.59028e-015 27.5927 4.71444 -2.65209 -1.5355 8.67173 31.7038 2.83739 -1.17114 -18.7564 -117.772 -9.69459 92.5087 28.839 -0.0548439 1.22491 13.0767 1.29953 95.516 26.5114 4.26326e-014 -0.101894 -1.10527e-012 -4.76474e-009 -0.0296889 -4.76168 -1.9167 -10.2353 -44.839 15.9352 94.5781 2.55951 -42.0585 -8.02213 -3.48482 43.5103 -11.7828 3.16357 -42.5282 -3.95426 -3.49148 -9.33046 -0.6635 0.346054 -6.02161 12.8035 5.3019 -13.2812 15.8156 -4.94151 -1.41743 10.6446 -41.4694 -19.7544 80.7546 -2.56294 -42.0364 -7.94377 0.768921 33.2325 2.17547 -3.0952 -42.555 -4.02241 -1.04087 1.39661 0.181078 -0.0828122 -6.13587 12.8035 1.47147 -12.1447 0.20744 
0 0 0 0 0 -0 -18.4609 92.2569 13.025 68.8204 -26.9844 -10.5885 -2.69724 7.43032 -0.144315 -70.1915 -2.75503e-015 88.8779 -0.0310711 10.7595 1.96963 89.6119 72.5049 -5.64105 13.1342 3.43533 0.764692 2.46554 20.9549 5.26201 29.8703 7.82586 -0.130764 -124.455 32.2925 162.473 9.52751 0.295786 -0.907742 168.829 73.0389 -131.423 27.5574 4.95586 2.47156 -0.0687816 -17.4454 -25.3249 1.20734 -0.998971 20.1238 -53.3348 18.9578 -139.9 26.8049 -0.0536703 -0.155908 26.3597 0.258793 -88.7407 26.6817 -2.84217e-014 0.320147 -1.59028e-015 -5.51627e-015 -1.19271e-015 27.5927 4.71444 -2.65209 -1.70005 8.65863 33.6873 2.83739 -1.17114 -18.7564 -122.561 -2.67672 90.1642 28.839 -0.0548439 1.22491 12.7348 0.95675 92.8777 26.5114 4.26326e-014 -0.101894 -1.09812e-012 -4.76474e-009 -0.0296889 -4.76168 -1.9167 -10.2353 -41.1185 17.4131 95.8688 2.55951 -42.0585 -8.02213 -4.18499 47.9244 -12.674 3.16357 -42.5282 -3.95426 -4.02868 -10.5784 -0.782081 0.346054 -6.02161 12.8035 5.14692 -13.1791 17.0415 -4.94151 -1.41743 10.6446 -41.6208 -19.1298 79.5209 -2.56294 -42.0364 -7.94377 1.20488 34.5332 -0.817815 -3.0952 -42.555 -4.02241 -1.55651 -0.831551 0.401114 -0.0828122 -6.13587 12.8035 1.23632 -11.0883 1.58083 
0 0 0 0 0 -0 -19.4674 92.1129 13.8285 68.5628 -24.7404 -9.52554 -2.69724 7.43032 -0.144315 -70.1915 1.17097e-015 88.8779 -0.0310711 10.7595 1.96963 91.6548 72.4306 -7.21205 13.1342 3.43533 0.764692 2.72108 20.9322 5.03662 29.8703 7.82586 -0.130764 -124.786 32.3211 159.563 9.52751 0.295786 -0.907742 171.937 74.2592 -134.917 27.5574 4.95586 2.47156 0.0772942 -16.5856 -25.1249 1.20734 -0.998971 20.1238 -53.1127 20.6539 -137.871 26.8049 -0.0536703 -0.155908 28.2395 1.2409 -87.0119 26.6817 -2.84217e-014 0.320147 3.86906e-031 9.29318e-015 -2.38542e-015 27.5927 4.71444 -2.65209 -1.78051 8.24269 35.7736 2.83739 -1.17114 -18.7564 -125.843 1.99819 91.1241 28.839 -0.0548439 1.22491 13.2922 -0.54872 89.1251 26.5114 2.84217e-014 -0.101894 -1.11243e-012 -4.76475e-009 -0.0296889 -4.76168 -1.9167 -10.2353 -38.8989 17.2809 96.3886 2.55951 -42.0585 -8.02213 -4.98585 51.0652 -15.536 3.16357 -42.5282 -3.95426 -4.23967 -11.7438 -0.913254 0.346054 -6.02161 12.8035 5.44048 -13.446 15.3385 -4.94151 -1.41743 10.6446 -40.9546 -18.7407 78.6579 -2.56294 -42.0364 -7.94377 1.32107 36.1528 -1.74052 -3.0952 -42.555 -4.02241 -2.44976 -2.04656 0.576257 -0.0828122 -6.13587 12.8035 1.38828 -11.4274 -0.00340998 
0 0 0 0 0 -0 -20.1837 91.8338 14.4042 68.1724 -22.9247 -8.87109 -2.69724 7.43032 -0.144315 -70.1915 -1.93815e-015 88.8779 -0.0310711 10.7595 1.96963 90.7992 72.5425 -7.0628 13.1342 3.43533 0.764692 2.76625 20.6748 6.18472 29.8703 7.82586 -0.130764 -123.535 32.1987 156.772 9.52751 0.295786 -0.907742 174.152 75.257 -136.655 27.5574 4.95586 2.47156 0.135949 -16.3074 -24.8293 1.20734 -0.998971 20.1238 -52.9078 22.8859 -136.452 26.8049 -0.0536703 -0.155908 21.4471 1.8664 -84.6429 26.6817 -2.84217e-014 0.320147 7.95139e-016 2.18663e-015 -3.18055e-015 27.5927 4.71444 -2.65209 -1.83761 7.6232 38.4402 2.83739 -1.17114 -18.7564 -127.754 5.73519 91.7172 28.839 -0.0548439 1.22491 13.5243 -1.27858 83.7624 26.5114 2.84217e-014 -0.101894 -1.09812e-012 -4.76474e-009 -0.0296889 -4.76168 -1.9167 -10.2353 -38.0872 16.2808 96.2578 2.55951 -42.0585 -8.02213 -5.269 51.6782 -16.6848 3.16357 -42.5282 -3.95426 -3.775 -12.0508 -0.955233 0.346054 -6.02161 12.8035 5.59753 -13.6079 14.3585 -4.94151 -1.41743 10.6446 -39.8401 -18.5162 78.3947 -2.56294 -42.0364 -7.94377 1.2669 38.0737 -2.70455 -3.0952 -42.555 -4.02241 -4.20144 -3.02137 0.816123 -0.0828122 -6.13587 12.8035 1.58316 -12.4758 -1.25102 
